<svg xmlns="http://www.w3.org/2000/svg" xmlns:oryx="http://oryx-editor.org" id="_A3A32E43-FFF7-4103-AB2D-1003DBEF7F45" width="733" height="270" xmlns:xlink="http://www.w3.org/1999/xlink" xmlns:svg="http://www.w3.org/2000/svg"><defs><marker id="_8F4BD85D-16CC-4415-BB1A-43CC88C3196Estart" refX="1" refY="5" markerUnits="userSpaceOnUse" markerWidth="17" markerHeight="11" orient="auto" fill="#000000" stroke="#000000"> 	  		<path id="_8F4BD85D-16CC-4415-BB1A-43CC88C3196Econditional" d="M 0 5 L 8 0 L 16 5 L 8 10 L 0 5" fill="white" stroke="#000000" stroke-width="1" display="none"/> 			<path id="_8F4BD85D-16CC-4415-BB1A-43CC88C3196Edefault" d="M 5 0 L 11 10" fill="white" stroke="#000000" stroke-width="1" display="none"/> 	  	</marker><marker id="_8F4BD85D-16CC-4415-BB1A-43CC88C3196Eend" refX="15" refY="6" markerUnits="userSpaceOnUse" markerWidth="15" markerHeight="12" orient="auto" fill="#000000" stroke="#000000"> 	  		<path id="_8F4BD85D-16CC-4415-BB1A-43CC88C3196Eframe2" d="M 0 1 L 15 6 L 0 11z" fill="#000000" stroke="#000000" stroke-linejoin="round" stroke-width="2"/> 	  	</marker><marker id="_58B1699D-C09B-4CEA-83ED-A496CF7A3E21start" refX="1" refY="5" markerUnits="userSpaceOnUse" markerWidth="17" markerHeight="11" orient="auto" fill="#000000" stroke="#000000"> 	  		<path id="_58B1699D-C09B-4CEA-83ED-A496CF7A3E21conditional" d="M 0 5 L 8 0 L 16 5 L 8 10 L 0 5" fill="white" stroke="#000000" stroke-width="1" display="none"/> 			<path id="_58B1699D-C09B-4CEA-83ED-A496CF7A3E21default" d="M 5 0 L 11 10" fill="white" stroke="#000000" stroke-width="1" display="none"/> 	  	</marker><marker id="_58B1699D-C09B-4CEA-83ED-A496CF7A3E21end" refX="15" refY="6" markerUnits="userSpaceOnUse" markerWidth="15" markerHeight="12" orient="auto" fill="#000000" stroke="#000000"> 	  		<path id="_58B1699D-C09B-4CEA-83ED-A496CF7A3E21frame2" d="M 0 1 L 15 6 L 0 11z" fill="#000000" stroke="#000000" stroke-linejoin="round" stroke-width="2"/> 	  	</marker><marker id="_0AAF9C0A-0088-4967-936C-984276260DBCstart" refX="1" refY="5" markerUnits="userSpaceOnUse" markerWidth="17" markerHeight="11" orient="auto" fill="#000000" stroke="#000000"> 	  		<path id="_0AAF9C0A-0088-4967-936C-984276260DBCconditional" d="M 0 5 L 8 0 L 16 5 L 8 10 L 0 5" fill="white" stroke="#000000" stroke-width="1" display="none"/> 			<path id="_0AAF9C0A-0088-4967-936C-984276260DBCdefault" d="M 5 0 L 11 10" fill="white" stroke="#000000" stroke-width="1" display="none"/> 	  	</marker><marker id="_0AAF9C0A-0088-4967-936C-984276260DBCend" refX="15" refY="6" markerUnits="userSpaceOnUse" markerWidth="15" markerHeight="12" orient="auto" fill="#000000" stroke="#000000"> 	  		<path id="_0AAF9C0A-0088-4967-936C-984276260DBCframe2" d="M 0 1 L 15 6 L 0 11z" fill="#000000" stroke="#000000" stroke-linejoin="round" stroke-width="2"/> 	  	</marker></defs><g stroke="none" font-family="Verdana, sans-serif" font-size-adjust="none" font-style="normal" font-variant="normal" font-weight="normal" line-heigth="normal" font-size="12"><g class="stencils" transform="translate(25.000000000000057, 24.999999999999943)"><g class="me"/><g class="children"><g id="_60142958-C270-47D3-B6B1-897BDE4586AC" bpmn2nodeid="processStartEvent"><g class="stencils" transform="translate(225, 165)"><g class="me"><g pointer-events="fill" id="_60142958-C270-47D3-B6B1-897BDE4586AC">        <defs id="_60142958-C270-47D3-B6B1-897BDE4586AC__60142958-C270-47D3-B6B1-897BDE4586AC_5"> 		<radialGradient id="_60142958-C270-47D3-B6B1-897BDE4586ACbackground" cx="10%" cy="10%" r="100%" fx="10%" fy="10%"> 			<stop offset="0%" stop-color="#ffffff" stop-opacity="1" id="_60142958-C270-47D3-B6B1-897BDE4586AC__60142958-C270-47D3-B6B1-897BDE4586AC_6"/> 			<stop id="_60142958-C270-47D3-B6B1-897BDE4586ACfill_el" offset="100%" stop-color="#9acd32" stop-opacity="1"/> 		</radialGradient> 	</defs> 	     <circle id="_60142958-C270-47D3-B6B1-897BDE4586ACbg_frame" cx="15" cy="15" r="15" stroke="#000000" fill="url(#_60142958-C270-47D3-B6B1-897BDE4586ACbackground) white" stroke-width="1" style="stroke-dasharray: 5.5, 3"/>      <circle id="_60142958-C270-47D3-B6B1-897BDE4586ACframe" cx="15" cy="15" r="15" stroke="#000000" fill="none" stroke-width="1" display="inherit"/>  	<text font-size="11" id="_60142958-C270-47D3-B6B1-897BDE4586ACtext_name" x="15" y="32" oryx:align="top center" stroke="black" stroke-width="0pt" letter-spacing="-0.01px" fill="#000000" text-anchor="middle" transform="rotate(0 15 32)" visibility="inherit" oryx:fontSize="11"/>   </g></g><g class="children" style="overflow:hidden"/><g class="edge"/></g><g class="controls"><g class="dockers"/><g class="magnets" transform="translate(225, 165)"><g pointer-events="all" display="none" transform="translate(7, 7)"><circle cx="8" cy="8" r="4" stroke="none" fill="red" fill-opacity="0.3"/></g></g></g></g><g id="_1B7EC45D-7B36-4887-AD6F-ED5C4C021B4E" bpmn2nodeid="_06F34D02-7990-40BA-A2A6-4E31192B441A"><g class="stencils" transform="translate(495, 140)"><g class="me"><g pointer-events="fill" oryx:minimumSize="80 60" id="_1B7EC45D-7B36-4887-AD6F-ED5C4C021B4E">   	<defs id="_1B7EC45D-7B36-4887-AD6F-ED5C4C021B4E__1B7EC45D-7B36-4887-AD6F-ED5C4C021B4E_17"> 		<radialGradient id="_1B7EC45D-7B36-4887-AD6F-ED5C4C021B4Ebackground" cx="10%" cy="10%" r="100%" fx="10%" fy="10%"> 			<stop offset="0%" stop-color="#ffffff" stop-opacity="1" id="_1B7EC45D-7B36-4887-AD6F-ED5C4C021B4E__1B7EC45D-7B36-4887-AD6F-ED5C4C021B4E_18"/> 			<stop id="_1B7EC45D-7B36-4887-AD6F-ED5C4C021B4Efill_el" offset="100%" stop-color="#fafad2" stop-opacity="1"/> 		</radialGradient> 	</defs> 	<rect id="_1B7EC45D-7B36-4887-AD6F-ED5C4C021B4Etext_frame" oryx:anchors="bottom top right left" x="1" y="1" width="94" height="79" rx="10" ry="10" stroke="none" stroke-width="0" fill="none"/> 	<rect id="_1B7EC45D-7B36-4887-AD6F-ED5C4C021B4Ebg_frame" oryx:anchors="bottom top right left" x="0" y="0" width="100" height="80" rx="10" ry="10" stroke="#000000" stroke-width="1" fill="url(#_1B7EC45D-7B36-4887-AD6F-ED5C4C021B4Ebackground) #ffffcc"/> 	<rect id="_1B7EC45D-7B36-4887-AD6F-ED5C4C021B4Eframe" oryx:resize="vertical horizontal" oryx:anchors="bottom top right left" x="0" y="0" width="100" height="80" rx="10" ry="10" stroke="#000000" stroke-width="4" fill="none"/> 	<rect id="_1B7EC45D-7B36-4887-AD6F-ED5C4C021B4Eframe2" oryx:anchors="top bottom left right" oryx:resize="vertical horizontal" x="2.5" y="2.5" width="95" height="75" rx="8" ry="8" stroke="#000000" stroke-width="1" fill="none"/>     	<text font-size="12" id="_1B7EC45D-7B36-4887-AD6F-ED5C4C021B4Etext_name" x="50" y="40" oryx:align="middle center" oryx:fittoelem="text_frame" stroke="black" stroke-width="0pt" letter-spacing="-0.01px" fill="#000000" text-anchor="middle" transform="rotate(0 50 40)" visibility="inherit" oryx:fontSize="12"><tspan x="50" y="40" dy="5">Send Request</tspan></text>          <a id="_1B7EC45D-7B36-4887-AD6F-ED5C4C021B4Epimg" onclick="parent.designeropenintab(&quot;req.bpmn2&quot;,&quot;default://master@tsm/rms/src/main/resources/gld/rms/req.bpmn2&quot;);" xlink:href="">	 	<g id="_1B7EC45D-7B36-4887-AD6F-ED5C4C021B4Eb" oryx:anchors="bottom"> 		<rect id="_1B7EC45D-7B36-4887-AD6F-ED5C4C021B4Eframe3" oryx:anchors="bottom" x="44" y="66" width="14" height="14" fill="none" stroke="#000000" stroke-width="1"/> 		<path id="_1B7EC45D-7B36-4887-AD6F-ED5C4C021B4Eframe4" oryx:anchors="bottom" fill="none" stroke="#000000" d="M51 68 v10 M 46 73 h10" stroke-width="1"/> 	</g> 	</a> 	<g id="_1B7EC45D-7B36-4887-AD6F-ED5C4C021B4Enone"/> 	undefined 	  	undefined 	undefined 	 	 	undefined 	undefined   </g></g><g class="children" style="overflow:hidden"/><g class="edge"/></g><g class="controls"><g class="dockers"/><g class="magnets" transform="translate(495, 140)"><g pointer-events="all" display="none" transform="translate(-7, 12)"><circle cx="8" cy="8" r="4" stroke="none" fill="red" fill-opacity="0.3"/></g><g pointer-events="all" display="none" transform="translate(-7, 32)"><circle cx="8" cy="8" r="4" stroke="none" fill="red" fill-opacity="0.3"/></g><g pointer-events="all" display="none" transform="translate(-7, 52)"><circle cx="8" cy="8" r="4" stroke="none" fill="red" fill-opacity="0.3"/></g><g pointer-events="all" display="none" transform="translate(17, 71)"><circle cx="8" cy="8" r="4" stroke="none" fill="red" fill-opacity="0.3"/></g><g pointer-events="all" display="none" transform="translate(42, 71)"><circle cx="8" cy="8" r="4" stroke="none" fill="red" fill-opacity="0.3"/></g><g pointer-events="all" display="none" transform="translate(67, 71)"><circle cx="8" cy="8" r="4" stroke="none" fill="red" fill-opacity="0.3"/></g><g pointer-events="all" display="none" transform="translate(91, 12)"><circle cx="8" cy="8" r="4" stroke="none" fill="red" fill-opacity="0.3"/></g><g pointer-events="all" display="none" transform="translate(91, 32)"><circle cx="8" cy="8" r="4" stroke="none" fill="red" fill-opacity="0.3"/></g><g pointer-events="all" display="none" transform="translate(91, 52)"><circle cx="8" cy="8" r="4" stroke="none" fill="red" fill-opacity="0.3"/></g><g pointer-events="all" display="none" transform="translate(17, -7)"><circle cx="8" cy="8" r="4" stroke="none" fill="red" fill-opacity="0.3"/></g><g pointer-events="all" display="none" transform="translate(42, -7)"><circle cx="8" cy="8" r="4" stroke="none" fill="red" fill-opacity="0.3"/></g><g pointer-events="all" display="none" transform="translate(67, -7)"><circle cx="8" cy="8" r="4" stroke="none" fill="red" fill-opacity="0.3"/></g><g pointer-events="all" display="none" transform="translate(42, 32)"><circle cx="8" cy="8" r="4" stroke="none" fill="red" fill-opacity="0.3"/></g></g></g></g><g id="_FAF929B8-FFC1-40D1-A5FF-6C8317B93168" bpmn2nodeid="_88DBD014-7B87-4393-A425-2B2F1E976CB1"><g class="stencils" transform="translate(655, 166)"><g class="me"><g pointer-events="fill" id="_FAF929B8-FFC1-40D1-A5FF-6C8317B93168">      <defs id="_FAF929B8-FFC1-40D1-A5FF-6C8317B93168__FAF929B8-FFC1-40D1-A5FF-6C8317B93168_5"> 		<radialGradient id="_FAF929B8-FFC1-40D1-A5FF-6C8317B93168background" cx="10%" cy="10%" r="100%" fx="10%" fy="10%"> 			<stop offset="0%" stop-color="#ffffff" stop-opacity="1" id="_FAF929B8-FFC1-40D1-A5FF-6C8317B93168__FAF929B8-FFC1-40D1-A5FF-6C8317B93168_6"/> 			<stop id="_FAF929B8-FFC1-40D1-A5FF-6C8317B93168fill_el" offset="100%" stop-color="#ff6347" stop-opacity="1"/> 		</radialGradient> 	</defs> 	     <circle id="_FAF929B8-FFC1-40D1-A5FF-6C8317B93168bg_frame" cx="14" cy="14" r="14" stroke="#000000" fill="url(#_FAF929B8-FFC1-40D1-A5FF-6C8317B93168background) white" stroke-width="3"/> 	<text font-size="11" id="_FAF929B8-FFC1-40D1-A5FF-6C8317B93168text_name" x="14" y="30" oryx:align="top center" stroke="black" stroke-width="0pt" letter-spacing="-0.01px" fill="#000000" text-anchor="middle" transform="rotate(0 14 30)" visibility="inherit" oryx:fontSize="11"/>   </g></g><g class="children" style="overflow:hidden"/><g class="edge"/></g><g class="controls"><g class="dockers"/><g class="magnets" transform="translate(655, 166)"><g pointer-events="all" display="none" transform="translate(6, 6)"><circle cx="8" cy="8" r="4" stroke="none" fill="red" fill-opacity="0.3"/></g></g></g></g><g id="_DDCBD679-FE1C-4487-8984-89617694DCB1" bpmn2nodeid="_D700ED93-062C-48D4-BE6C-BDEAFF693372"><g class="stencils" transform="translate(330, 140)"><g class="me"><g pointer-events="fill" oryx:minimumSize="50 40" id="_DDCBD679-FE1C-4487-8984-89617694DCB1">   	<defs id="_DDCBD679-FE1C-4487-8984-89617694DCB1__DDCBD679-FE1C-4487-8984-89617694DCB1_17"> 		<radialGradient id="_DDCBD679-FE1C-4487-8984-89617694DCB1background" cx="10%" cy="10%" r="100%" fx="10%" fy="10%"> 			<stop offset="0%" stop-color="#ffffff" stop-opacity="1" id="_DDCBD679-FE1C-4487-8984-89617694DCB1__DDCBD679-FE1C-4487-8984-89617694DCB1_18"/> 			<stop id="_DDCBD679-FE1C-4487-8984-89617694DCB1fill_el" offset="100%" stop-color="#fafad2" stop-opacity="1"/> 		</radialGradient> 		<radialGradient id="_DDCBD679-FE1C-4487-8984-89617694DCB1borderbackground" cx="10%" cy="10%" r="100%" fx="10%" fy="10%"> 			<stop offset="0%" stop-color="#ffffff" stop-opacity="1" id="_DDCBD679-FE1C-4487-8984-89617694DCB1__DDCBD679-FE1C-4487-8984-89617694DCB1_19"/> 			<stop id="_DDCBD679-FE1C-4487-8984-89617694DCB1fill_border" offset="100%" stop-color="#000000" stop-opacity="1" stroke="#000000"/> 		</radialGradient> 	</defs> 	 	<rect id="_DDCBD679-FE1C-4487-8984-89617694DCB1text_frame" oryx:anchors="bottom top right left" x="1" y="1" width="94" height="79" rx="10" ry="10" stroke="none" stroke-width="0" fill="none"/> 	<rect id="_DDCBD679-FE1C-4487-8984-89617694DCB1bg_frame" oryx:resize="vertical horizontal" x="0" y="0" width="100" height="80" rx="10" ry="10" stroke="#000000" stroke-width="1" fill="url(#_DDCBD679-FE1C-4487-8984-89617694DCB1background) #ffffcc"/> 		<text font-size="12" id="_DDCBD679-FE1C-4487-8984-89617694DCB1text_name" x="50" y="40" oryx:align="middle center" oryx:fittoelem="text_frame" stroke="black" text-anchor="middle" stroke-width="0pt" letter-spacing="-0.01px" fill="#000000" transform="rotate(0 50 40)" visibility="inherit" oryx:fontSize="12"><tspan x="50" y="40" dy="-1">Set Request </tspan><tspan x="50" y="40" dy="11">Vars</tspan></text>     <g id="_DDCBD679-FE1C-4487-8984-89617694DCB1manualTask" transform="scale(0.7,0.7) translate(8,8)" display="none">     	<path oryx:anchors="top left" id="_DDCBD679-FE1C-4487-8984-89617694DCB1frame" style="opacity:1;fill:none;fill-opacity:1;stroke-width:1" d="M0.5,3.751l4.083-3.25c0,0,11.166,0.083,12.083,0.083s-2.417,2.917-1.5,2.917     s11.667,0,12.584,0c1.166,1.708-0.168,3.167-0.834,3.667s0.875,1.917-1,4.417c-0.75,0.25,0.75,1.875-1.333,3.333     c-1.167,0.583,0.583,1.542-1.25,2.833c-1.167,0-20.833,0.083-20.833,0.083l-2-1.333V3.751z" stroke="#000000"/> 		<path id="_DDCBD679-FE1C-4487-8984-89617694DCB1frame2" oryx:anchors="top left" style="opacity:1;fill:none;stroke-width:2" d="M 13.5 7 L 27 7" stroke="#000000"/> 		<path id="_DDCBD679-FE1C-4487-8984-89617694DCB1frame3" oryx:anchors="top left" style="opacity:1;fill:none;stroke-width:2" d="M 13.5 11 L 26 11" stroke="#000000"/> 		<path id="_DDCBD679-FE1C-4487-8984-89617694DCB1frame4" oryx:anchors="top left" style="opacity:1;fill:none;stroke-width:1.5" d="M 14 14.5 L 25 14.5" stroke="#000000"/> 		<path id="_DDCBD679-FE1C-4487-8984-89617694DCB1frame5" oryx:anchors="top left" style="opacity:1;fill:none;stroke-width:1.5" d="M 8.2 3.1 L 15 3.1" stroke="#000000"/> 	</g> 	 	<g id="_DDCBD679-FE1C-4487-8984-89617694DCB1businessRuleTask" transform="scale(0.7,0.7) translate(8,8)" display="none"> 		<rect id="_DDCBD679-FE1C-4487-8984-89617694DCB1frame6" oryx:anchors="top left" x="0" y="0" width="22" height="4" style="opacity:1;fill:#B3B1B3;fill-opacity:1;" stroke="#000000"/> 		<rect id="_DDCBD679-FE1C-4487-8984-89617694DCB1frame7" oryx:anchors="top left" x="0" y="4" style="opacity:1;fill:none;" width="22" height="12" stroke="#000000"/> 		<path id="_DDCBD679-FE1C-4487-8984-89617694DCB1frame8" oryx:anchors="top left" style="opacity:1;fill:none;" d="M 0 10 L 22 10" stroke="#000000"/> 		<path id="_DDCBD679-FE1C-4487-8984-89617694DCB1frame9" oryx:anchors="top left" style="opacity:1; fill:none;" d="M 7 4 L 7 16" stroke="#000000"/> 	</g> 	 	<g id="_DDCBD679-FE1C-4487-8984-89617694DCB1scriptTask" transform="scale(0.7,0.7) translate(8,8)" display="inherit"> 		<path oryx:anchors="top left" id="_DDCBD679-FE1C-4487-8984-89617694DCB1frame10" style="opacity:1;fill:none;" stroke="#000000" d="M6.402,0.5h14.5c0,0-5.833,2.833-5.833,5.583s4.417,6,4.417,9.167    s-4.167,5.083-4.167,5.083H0.235c0,0,5-2.667,5-5s-4.583-6.75-4.583-9.25S6.402,0.5,6.402,0.5z"/> 		<path oryx:anchors="top left" id="_DDCBD679-FE1C-4487-8984-89617694DCB1frame11" style="opacity:1;fill:none;stroke-width:1.5" d="M 3.5 4.5 L 13.5 4.5" stroke="#000000"/> 		<path oryx:anchors="top left" id="_DDCBD679-FE1C-4487-8984-89617694DCB1frame12" style="opacity:1;fill:none;stroke-width:1.5" d="M 3.8 8.5 L 13.8 8.5" stroke="#000000"/> 		<path oryx:anchors="top left" id="_DDCBD679-FE1C-4487-8984-89617694DCB1frame13" style="opacity:1;fill:none;stroke-width:1.5" d="M 6.3 12.5 L 16.3 12.5" stroke="#000000"/> 		<path oryx:anchors="top left" id="_DDCBD679-FE1C-4487-8984-89617694DCB1frame14" style="opacity:1;fill:none;stroke-width:1.5" d="M 6.5 16.5 L 16.5 16.5" stroke="#000000"/> 	</g> 	 	<g id="_DDCBD679-FE1C-4487-8984-89617694DCB1userTask" transform="scale(0.7,0.7) translate(8,8)" display="none"> 		<path id="_DDCBD679-FE1C-4487-8984-89617694DCB1frame15" oryx:anchors="top left" style="opacity:1;fill:#F4F6F7" stroke="#000000" d="M0.585,24.167h24.083v-7.833c0,0-2.333-3.917-7.083-5.167h-9.25    c-4.417,1.333-7.833,5.75-7.833,5.75L0.585,24.167z"/> 		<path id="_DDCBD679-FE1C-4487-8984-89617694DCB1frame16" oryx:anchors="top left" style="opacity:1;fill:none" d="M 6 20 L 6 24" stroke="#000000"/> 		<path id="_DDCBD679-FE1C-4487-8984-89617694DCB1frame17" oryx:anchors="top left" style="opacity:1;fill:none" d="M 20 20 L 20 24" stroke="#000000"/> 		<circle id="_DDCBD679-FE1C-4487-8984-89617694DCB1frame18" oryx:anchors="top left" fill="black" cx="13.002" cy="5.916" r="5.417" stroke="#000000"/> 		<path id="_DDCBD679-FE1C-4487-8984-89617694DCB1frame19" oryx:anchors="top left" style="opacity:1;fill:#F0EFF0;" stroke="#000000" d="M8.043,7.083c0,0,2.814-2.426,5.376-1.807s4.624-0.693,4.624-0.693    c0.25,1.688,0.042,3.75-1.458,5.584c0,0,1.083,0.75,1.083,1.5s0.125,1.875-1,3s-5.5,1.25-6.75,0S8.668,12.834,8.668,12    s0.583-1.25,1.25-1.917C8.835,9.5,7.419,7.708,8.043,7.083z"/> 	</g> 	 	<g id="_DDCBD679-FE1C-4487-8984-89617694DCB1serviceTask" transform="scale(0.7,0.7) translate(8,8)" display="none"> 		<polygon oryx:anchors="top left" id="_DDCBD679-FE1C-4487-8984-89617694DCB1frame20" style="opacity:1;fill:#ffffff" stroke="#000000" points="15.392,5.064 17.954,2.502 20.347,4.895 17.786,7.455     18.729,9.732 22.353,9.732 22.353,13.115 18.731,13.115 17.788,15.392 20.351,17.955 17.958,20.347 15.397,17.786 13.12,18.729     13.12,22.353 9.737,22.353 9.737,18.731 7.46,17.788 4.897,20.35 2.506,17.958 5.066,15.397 4.124,13.12 0.5,13.12 0.5,9.737     4.121,9.737 5.065,7.461 2.503,4.898 4.895,2.506 7.455,5.066 9.732,4.125 9.732,0.5 13.116,0.5 13.116,4.121 "/> 		<circle oryx:anchors="top left" id="_DDCBD679-FE1C-4487-8984-89617694DCB1frame21" style="opacity:1;fill:none" stroke="#000000" cx="11.427" cy="11.426" r="3.714"/> 		<polygon oryx:anchors="top left" id="_DDCBD679-FE1C-4487-8984-89617694DCB1frame22" style="opacity:1;fill:#ffffff" stroke="#000000" points="21.392,11.064 23.954,8.502 26.347,10.895 23.786,13.455     24.729,15.732 28.353,15.732 28.353,19.115 24.731,19.115 23.788,21.392 26.351,23.955 23.958,26.347 21.397,23.786 19.12,24.729     19.12,28.353 15.737,28.353 15.737,24.731 13.46,23.788 10.897,26.35 8.506,23.958 11.066,21.397 10.124,19.12 6.5,19.12     6.5,15.737 10.121,15.737 11.065,13.461 8.503,10.898 10.895,8.506 13.455,11.066 15.732,10.125 15.732,6.5 19.116,6.5     19.116,10.121 "/> 		<circle oryx:anchors="top left" id="_DDCBD679-FE1C-4487-8984-89617694DCB1frame23" style="opacity:1;fill:none;" stroke="#000000" cx="17.427" cy="17.426" r="3.714"/> 	</g> 	 	<g id="_DDCBD679-FE1C-4487-8984-89617694DCB1sendTask" display="none"> 		<path id="_DDCBD679-FE1C-4487-8984-89617694DCB1stframe24" oryx:anchors="left top" stroke="#FFFFFF" fill="black" stroke-width="1" d="M8,11 L8,21 L24,21 L24,11 L16,17z"/> 		<path id="_DDCBD679-FE1C-4487-8984-89617694DCB1stframe25" oryx:anchors="left top" stroke="#FFFFFF" fill="black" stroke-width="1" d="M7,10 L16,17 L25 10z"/> 	</g> 	 	<g id="_DDCBD679-FE1C-4487-8984-89617694DCB1receiveTask" display="none"> 		<path id="_DDCBD679-FE1C-4487-8984-89617694DCB1frame26" oryx:anchors="left top" stroke="#000000" fill="none" stroke-width="1" d="M8,11 L8,21 L24,21 L24,11z M8,11 L16,17 L24,11"/> 	</g> 	 	<g id="_DDCBD679-FE1C-4487-8984-89617694DCB1none" display="inherit"/>  	<g id="_DDCBD679-FE1C-4487-8984-89617694DCB1sequential" display="none">         <path oryx:anchors="bottom" fill="none" stroke="#000000" stroke-width="2" d="M46,76h10M46,72h10 M46,68h10" id="_DDCBD679-FE1C-4487-8984-89617694DCB1__DDCBD679-FE1C-4487-8984-89617694DCB1_20"/>     </g>   </g></g><g class="children" style="overflow:hidden"/><g class="edge"/></g><g class="controls"><g class="dockers"/><g class="magnets" transform="translate(330, 140)"><g pointer-events="all" display="none" transform="translate(-7, 12)"><circle cx="8" cy="8" r="4" stroke="none" fill="red" fill-opacity="0.3"/></g><g pointer-events="all" display="none" transform="translate(-7, 32)"><circle cx="8" cy="8" r="4" stroke="none" fill="red" fill-opacity="0.3"/></g><g pointer-events="all" display="none" transform="translate(-7, 52)"><circle cx="8" cy="8" r="4" stroke="none" fill="red" fill-opacity="0.3"/></g><g pointer-events="all" display="none" transform="translate(17, 71)"><circle cx="8" cy="8" r="4" stroke="none" fill="red" fill-opacity="0.3"/></g><g pointer-events="all" display="none" transform="translate(42, 71)"><circle cx="8" cy="8" r="4" stroke="none" fill="red" fill-opacity="0.3"/></g><g pointer-events="all" display="none" transform="translate(67, 71)"><circle cx="8" cy="8" r="4" stroke="none" fill="red" fill-opacity="0.3"/></g><g pointer-events="all" display="none" transform="translate(91, 12)"><circle cx="8" cy="8" r="4" stroke="none" fill="red" fill-opacity="0.3"/></g><g pointer-events="all" display="none" transform="translate(91, 32)"><circle cx="8" cy="8" r="4" stroke="none" fill="red" fill-opacity="0.3"/></g><g pointer-events="all" display="none" transform="translate(91, 52)"><circle cx="8" cy="8" r="4" stroke="none" fill="red" fill-opacity="0.3"/></g><g pointer-events="all" display="none" transform="translate(17, -7)"><circle cx="8" cy="8" r="4" stroke="none" fill="red" fill-opacity="0.3"/></g><g pointer-events="all" display="none" transform="translate(42, -7)"><circle cx="8" cy="8" r="4" stroke="none" fill="red" fill-opacity="0.3"/></g><g pointer-events="all" display="none" transform="translate(67, -7)"><circle cx="8" cy="8" r="4" stroke="none" fill="red" fill-opacity="0.3"/></g><g pointer-events="all" display="none" transform="translate(42, 32)"><circle cx="8" cy="8" r="4" stroke="none" fill="red" fill-opacity="0.3"/></g></g></g></g></g><g class="edge"><g id="_8F4BD85D-16CC-4415-BB1A-43CC88C3196E" bpmn2nodeid="_8EDBEB80-02A0-4693-BF2E-85C50D520C0D"><g class="stencils"><g class="me"><g pointer-events="painted" bpmn2nodeid="_3156B190-2EE9-4E0B-90F9-3C426659FDAB"><path id="_8F4BD85D-16CC-4415-BB1A-43CC88C3196E_1" d="M430.62890625 180L494.37109375 180 " stroke="#000000" fill="none" stroke-width="2" stroke-linecap="round" stroke-linejoin="round" marker-start="url(#_8F4BD85D-16CC-4415-BB1A-43CC88C3196Estart)" marker-end="url(#_8F4BD85D-16CC-4415-BB1A-43CC88C3196Eend)"/></g><text id="_8F4BD85D-16CC-4415-BB1A-43CC88C3196Etext_name" font-size="12" x="444.62890625" y="166" oryx:edgePosition="startTop" stroke-width="0pt" letter-spacing="-0.01px" fill="#000000" text-anchor="start" transform="rotate(360 430.62890625 180)" visibility="inherit" oryx:fontSize="12"/></g><g class="children" style="overflow:hidden"/><g class="edge"/></g><g class="controls"><g class="dockers"/><g class="magnets"/></g></g><g id="_58B1699D-C09B-4CEA-83ED-A496CF7A3E21" bpmn2nodeid="_F2ED41AB-BF65-4C94-BB2A-FDF08DB6442A"><g class="stencils"><g class="me"><g pointer-events="painted" bpmn2nodeid="_3218A180-44AE-486E-831C-1649FEAAE223"><path id="_58B1699D-C09B-4CEA-83ED-A496CF7A3E21_1" d="M595.40625 180L654.4375 180 " stroke="#000000" fill="none" stroke-width="2" stroke-linecap="round" stroke-linejoin="round" marker-start="url(#_58B1699D-C09B-4CEA-83ED-A496CF7A3E21start)" marker-end="url(#_58B1699D-C09B-4CEA-83ED-A496CF7A3E21end)"/></g><text id="_58B1699D-C09B-4CEA-83ED-A496CF7A3E21text_name" font-size="12" x="609.40625" y="166" oryx:edgePosition="startTop" stroke-width="0pt" letter-spacing="-0.01px" fill="#000000" text-anchor="start" transform="rotate(360 595.40625 180)" visibility="inherit" oryx:fontSize="12"/></g><g class="children" style="overflow:hidden"/><g class="edge"/></g><g class="controls"><g class="dockers"/><g class="magnets"/></g></g><g id="_0AAF9C0A-0088-4967-936C-984276260DBC" bpmn2nodeid="_6CD9AF89-E940-4047-9A8D-953569CA7173"><g class="stencils"><g class="me"><g pointer-events="painted" bpmn2nodeid="_3CC05934-1E4E-4F00-AB8B-0E1968C3EF8A"><path id="_0AAF9C0A-0088-4967-936C-984276260DBC_1" d="M255.21875 180L329.78125 180 " stroke="#000000" fill="none" stroke-width="2" stroke-linecap="round" stroke-linejoin="round" marker-start="url(#_0AAF9C0A-0088-4967-936C-984276260DBCstart)" marker-end="url(#_0AAF9C0A-0088-4967-936C-984276260DBCend)"/></g><text id="_0AAF9C0A-0088-4967-936C-984276260DBCtext_name" font-size="12" x="269.21875" y="166" oryx:edgePosition="startTop" stroke-width="0pt" letter-spacing="-0.01px" fill="#000000" text-anchor="start" transform="rotate(360 255.21875 180)" visibility="inherit" oryx:fontSize="12"/></g><g class="children" style="overflow:hidden"/><g class="edge"/></g><g class="controls"><g class="dockers"/><g class="magnets"/></g></g></g><text id="_138BEA13-9822-48B1-839B-F65D59080144" style="stroke-width:1;fill:rgb(177,194,214);font-family:arial;font-weight:bold" font-size="12" onclick="ORYX.Plugins.CanvasTitle.openTextualAnalysis()" onmouseover="ORYX.Plugins.CanvasTitle.addToolTip('_138BEA13-9822-48B1-839B-F65D59080144')" transform="translate(10, 20)">notify v.1.0 (rms.notify)</text></g></g></svg>